<svg width="22" height="22" viewBox="0 0 22 22" fill="none" xmlns="http://www.w3.org/2000/svg">
<path d="M8.45952 13.42L15.9668 5.91272C16.144 5.73555 16.3507 5.64697 16.5869 5.64697C16.8231 5.64697 17.0298 5.73555 17.207 5.91272C17.3841 6.08988 17.4727 6.30041 17.4727 6.54431C17.4727 6.7882 17.3841 6.99844 17.207 7.17501L9.07959 15.3245C8.90243 15.5017 8.69574 15.5903 8.45952 15.5903C8.2233 15.5903 8.01661 15.5017 7.83945 15.3245L4.03043 11.5155C3.85326 11.3384 3.76822 11.1281 3.77531 10.8848C3.7824 10.6415 3.87482 10.431 4.05257 10.2532C4.23033 10.0755 4.44086 9.98689 4.68416 9.98748C4.92747 9.98807 5.1377 10.0767 5.31486 10.2532L8.45952 13.42Z" fill="white"/>
</svg>
